<?xml version="1.0" encoding="UTF-8" standalone="no"?>
<!-- Generator: Adobe Illustrator 16.0.0, SVG Export Plug-In . SVG Version: 6.00 Build 0)  -->

<svg
   version="1.1"
   id="Capa_1"
   x="0px"
   y="0px"
   width="435.244px"
   height="435.244px"
   viewBox="0 0 435.244 435.244"
   style="enable-background:new 0 0 435.244 435.244;"
   xml:space="preserve"
   sodipodi:docname="feedback.svg"
   inkscape:version="1.1.1 (3bf5ae0d25, 2021-09-20)"
   xmlns:inkscape="http://www.inkscape.org/namespaces/inkscape"
   xmlns:sodipodi="http://sodipodi.sourceforge.net/DTD/sodipodi-0.dtd"
   xmlns="http://www.w3.org/2000/svg"
   xmlns:svg="http://www.w3.org/2000/svg"><defs
   id="defs41" /><sodipodi:namedview
   id="namedview39"
   pagecolor="#505050"
   bordercolor="#ffffff"
   borderopacity="1"
   inkscape:pageshadow="0"
   inkscape:pageopacity="0"
   inkscape:pagecheckerboard="1"
   showgrid="false"
   inkscape:zoom="2.0057715"
   inkscape:cx="217.37272"
   inkscape:cy="217.622"
   inkscape:window-width="2560"
   inkscape:window-height="1377"
   inkscape:window-x="1072"
   inkscape:window-y="344"
   inkscape:window-maximized="1"
   inkscape:current-layer="g4" />
<g
   id="g6"
   transform="matrix(-0.58586847,0,0,0.58586847,345.11987,90.124132)"
   style="fill:#ffffff;fill-opacity:1">
	<g
   id="g4"
   style="fill:#ffffff;fill-opacity:1">
		<path
   style="fill:#ffffff;fill-opacity:1"
   d="M 75.146,425.343 V 328.989 C 27.281,294.43 0,244.745 0,191.603 0,91.414 97.624,9.901 217.622,9.901 c 119.998,0 217.622,81.513 217.622,181.701 0,100.186 -97.624,181.701 -217.622,181.701 -14.218,0 -28.533,-1.189 -42.631,-3.539 z M 217.622,39.177 c -103.854,0 -188.346,68.379 -188.346,152.425 0,45.561 25.014,88.418 68.636,117.568 l 6.504,4.346 v 62.022 l 65.497,-36.452 5.2,0.973 c 14.021,2.63 28.321,3.968 42.508,3.968 103.856,0 188.346,-68.376 188.346,-152.425 C 405.968,107.556 321.479,39.177 217.622,39.177 Z"
   id="path2" />
	<path
   style="fill:#ffffff;fill-opacity:1;stroke-width:0.86052"
   d="M 93.27031,390.44307 V 308.69433 C 51.494196,279.37376 27.6836,237.21998 27.6836,192.1332 c 0,-85.00243 85.2053,-154.159744 189.9384,-154.159744 104.7331,0 189.9384,69.157314 189.9384,154.158894 0,84.99988 -85.2053,154.1589 -189.9384,154.1589 -12.40934,0 -24.90333,-1.00877 -37.20793,-3.00256 z M 217.622,62.811822 c -90.64278,0 -164.386587,58.014158 -164.386587,129.320528 0,38.6549 21.83198,75.01567 59.904847,99.74713 l 5.67663,3.68724 v 52.62075 l 57.16515,-30.92663 4.53851,0.82551 c 12.2374,2.23135 24.7183,3.36654 37.10058,3.36654 90.64452,0 164.38659,-58.01162 164.38659,-129.32054 C 382.00859,120.82598 308.26739,62.811822 217.622,62.811822 Z"
   id="path1396" /></g>
</g>
<g
   id="g8">
</g>
<g
   id="g10">
</g>
<g
   id="g12">
</g>
<g
   id="g14">
</g>
<g
   id="g16">
</g>
<g
   id="g18">
</g>
<g
   id="g20">
</g>
<g
   id="g22">
</g>
<g
   id="g24">
</g>
<g
   id="g26">
</g>
<g
   id="g28">
</g>
<g
   id="g30">
</g>
<g
   id="g32">
</g>
<g
   id="g34">
</g>
<g
   id="g36">
</g>
</svg>
