<?xml version="1.0" encoding="UTF-8" standalone="no"?>
<svg xmlns="http://www.w3.org/2000/svg" width="1024" height="1024" viewBox="0 0 1024 1024" fill="none">

   <path fill-rule="evenodd" clip-rule="evenodd" d="m 512,164.86941 c -189.48562,0 -342.96041,153.47478 -342.96041,342.96041 0,151.75998 98.17242,279.94143 234.49918,325.38369 17.14802,3.00091 23.57852,-7.28791 23.57852,-16.29062 0,-8.14531 -0.42869,-35.15344 -0.42869,-63.87638 -86.16881,15.86192 -108.46123,-21.00632 -115.32044,-40.29785 -3.8583,-9.86011 -20.57762,-40.29785 -35.15344,-48.44315 -12.00362,-6.43051 -29.15164,-22.29243 -0.42871,-22.72113 27.00814,-0.4287 46.29966,24.86463 52.73017,35.15344 30.86643,51.87276 80.167,37.29695 99.88722,28.29423 3.0009,-22.29242 12.00362,-37.29694 21.86373,-45.87095 -76.3087,-8.57401 -156.04699,-38.15434 -156.04699,-169.3367 0,-37.29695 13.28972,-68.16339 35.15344,-92.17061 -3.42961,-8.57402 -15.43322,-43.72746 3.4296,-90.88451 0,0 28.72294,-9.00272 94.31411,35.15344 27.43684,-7.71661 56.58848,-11.57492 85.74011,-11.57492 29.15163,0 58.30327,3.85831 85.7401,11.57492 65.59118,-44.58485 94.31412,-35.15344 94.31412,-35.15344 18.86282,47.15705 6.8592,82.31049 3.4296,90.88451 21.86372,24.00722 35.15345,54.44496 35.15345,92.17061 0,131.61105 -80.16701,160.76269 -156.47569,169.3367 12.43231,10.71751 23.14982,31.29514 23.14982,63.44767 0,45.87097 -0.4287,82.7392 -0.4287,94.31412 0,9.00271 6.43051,19.72022 23.57853,16.29062 C 756.78799,787.77125 854.96041,659.1611 854.96041,507.82982 854.96041,318.34419 701.48562,164.86941 512,164.86941 Z" fill="lightgrey" id="path2" style="stroke-width:42.8701" />
</svg>
