<?xml version="1.0" encoding="UTF-8" standalone="no"?>
<svg xmlns="http://www.w3.org/2000/svg" data-name="Layer 1" width="400" height="400" viewBox="0 0 400.00001 400" version="1.1" id="svg116">


   <g id="g952" transform="translate(-138.8925,-65.929984)">
      <path d="M 604.12139,406.47205 H 286.80645 a 18.34252,18.34252 0 0 0 -18.34253,18.34253 v 76.31494 a 18.34248,18.34248 0 0 0 18.34253,18.34253 h 4.65747 v 13.7876 a 4.23013,4.23013 0 0 0 7.22131,2.99108 l 16.77869,-16.77868 h 288.65747 a 18.34248,18.34248 0 0 0 18.34253,-18.34253 v -76.31494 a 18.34252,18.34252 0 0 0 -18.34253,-18.34253 z" transform="translate(-108.16231,-198.75139)" fill="#e6e6e6" id="path80" />
      <path d="m 527.80664,509.97168 h -241 a 8.85271,8.85271 0 0 1 -8.84277,-8.84277 v -76.31446 a 8.8525,8.8525 0 0 1 8.84228,-8.84228 h 317.31494 a 8.85272,8.85272 0 0 1 8.84278,8.84277 85.25331,85.25331 0 0 1 -85.15723,85.15674 z" transform="translate(-108.16231,-198.75139)" fill="#484848" id="path82" />
      <rect x="264.63495" y="233.72066" width="146" height="12" rx="5.99999" fill="#e6e6e6" id="rect84" />
      <rect x="236.13493" y="257.72067" width="203" height="12" rx="5.99999" fill="#e6e6e6" id="rect86" />
      <rect x="236.13493" y="281.72067" width="203" height="12" rx="5.99999" fill="#e6e6e6" id="rect88" />
   </g>
</svg>
